<?xml version="1.0" standalone="no"?><!DOCTYPE svg PUBLIC "-//W3C//DTD SVG 1.1//EN" "http://www.w3.org/Graphics/SVG/1.1/DTD/svg11.dtd"><svg class="icon" width="200px" height="200.00px" viewBox="0 0 1024 1024" version="1.1" xmlns="http://www.w3.org/2000/svg"><path d="M924.330667 416.853333H680.533333a7.68 7.68 0 0 0-7.637333 7.594667v45.696c0 4.181333 3.413333 7.637333 7.637333 7.637333h243.797334a7.68 7.68 0 0 0 7.637333-7.637333V424.448a7.68 7.68 0 0 0-7.637333-7.637333z m-127.616 129.493334H680.533333a7.68 7.68 0 0 0-7.637333 7.594666v45.738667c0 4.181333 3.413333 7.594667 7.637333 7.594667h116.181334a7.68 7.68 0 0 0 7.637333-7.594667v-45.738667a7.68 7.68 0 0 0-7.637333-7.594666zM478.890667 331.52h-41.216a10.666667 10.666667 0 0 0-10.666667 10.666667v236.202666c0 3.413333 1.621333 6.570667 4.394667 8.576l141.781333 103.424a10.666667 10.666667 0 0 0 14.848-2.261333l24.490667-33.450667v-0.085333a10.666667 10.666667 0 0 0-2.389334-14.848l-120.661333-87.253333V342.229333a10.581333 10.581333 0 0 0-10.581333-10.666666z" fill="#4d9078" /><path d="M790.826667 666.026667h-55.04a15.658667 15.658667 0 0 0-13.226667 7.296 305.664 305.664 0 0 1-138.837333 118.101333 301.824 301.824 0 0 1-118.101334 23.808 302.08 302.08 0 0 1-214.570666-88.874667A302.08 302.08 0 0 1 162.133333 511.872a302.08 302.08 0 0 1 88.874667-214.570667 302.08 302.08 0 0 1 214.570667-88.874666 302.08 302.08 0 0 1 214.570666 88.874666c16.042667 16.042667 30.250667 33.834667 42.368 53.034667a15.658667 15.658667 0 0 0 13.226667 7.338667h55.04c6.570667 0 10.794667-6.826667 7.808-12.672a372.48 372.48 0 0 0-328.533333-205.44c-205.824-2.56-376.746667 165.930667-377.173334 371.541333-0.384 205.994667 166.570667 373.162667 372.565334 373.162667a372.522667 372.522667 0 0 0 333.141333-205.568 8.746667 8.746667 0 0 0-7.808-12.629334z" fill="#214083" /></svg>