<?xml version="1.0" standalone="no"?><!DOCTYPE svg PUBLIC "-//W3C//DTD SVG 1.1//EN" "http://www.w3.org/Graphics/SVG/1.1/DTD/svg11.dtd"><svg class="icon" width="200px" height="199.80px" viewBox="0 0 1025 1024" version="1.1" xmlns="http://www.w3.org/2000/svg"><path d="M496.258 835.77L146.867 474.92l89.564-72.892L438.46 562.92c82.793-99.974 266.598-298.36 520.18-456.131l21.344 49.983C747.235 373.906 556.659 679.555 496.258 835.77M937.41 441.754a434.109 434.109 0 0 1 5.727 70.245c0 238.112-193.02 431.136-431.136 431.136C273.894 943.135 80.87 750.11 80.87 512 80.87 273.893 273.895 80.87 512 80.87c57.488 0 112.335 11.278 162.483 31.697v-86.24C622.294 8.846 567.807 0 512.001 0c-69.083 0-136.147 13.547-199.317 40.268-60.98 25.797-115.727 62.702-162.726 109.691-46.988 47-83.894 101.745-109.69 162.726C13.547 375.853 0 442.918 0 512c0 69.089 13.547 136.147 40.268 199.316 25.796 60.987 62.702 115.727 109.69 162.726 46.999 46.994 101.746 83.9 162.726 109.69 63.17 26.726 130.234 40.268 199.317 40.268 69.088 0 136.146-13.542 199.321-40.269 60.981-25.79 115.721-62.695 162.72-109.689 47-47 83.906-101.74 109.69-162.72 26.727-63.175 40.274-130.239 40.274-199.322 0-23.675-1.592-47.112-4.762-70.245H937.41z"  /></svg>