<?xml version="1.0" standalone="no"?><!DOCTYPE svg PUBLIC "-//W3C//DTD SVG 1.1//EN" "http://www.w3.org/Graphics/SVG/1.1/DTD/svg11.dtd"><svg class="icon" width="200px" height="200.00px" viewBox="0 0 1024 1024" version="1.1" xmlns="http://www.w3.org/2000/svg"><path d="M343 556.5m48 0l121 0q48 0 48 48l0 24q0 48-48 48l-121 0q-48 0-48-48l0-24q0-48 48-48ZM343 347.5m48 0l233 0q48 0 48 48l0 24q0 48-48 48l-233 0q-48 0-48-48l0-24q0-48 48-48ZM511 64C263.58 64 63 264.58 63 512s200.58 448 448 448 448-200.58 448-448S758.42 64 511 64z m257 688a48 48 0 0 1-48 48H304a48 48 0 0 1-48-48V272a48 48 0 0 1 48-48h416a48 48 0 0 1 48 48z" /></svg>