<?xml version="1.0" standalone="no"?><!DOCTYPE svg PUBLIC "-//W3C//DTD SVG 1.1//EN" "http://www.w3.org/Graphics/SVG/1.1/DTD/svg11.dtd"><svg class="icon" width="200px" height="200.00px" viewBox="0 0 1024 1024" version="1.1" xmlns="http://www.w3.org/2000/svg"><path d="M107.008 238.08a84.992 84.992 0 1 0 169.984 0 84.992 84.992 0 1 0-169.984 0ZM988.672 105.984H380.928c-16.384 0-28.16 12.8-28.16 28.16v210.432H151.04c-90.624 0-135.168 158.72-145.92 207.36-4.096 20.48 7.68 39.936 28.16 44.544 3.584 1.536 5.632 1.536 8.704 1.536 17.408 0 32.256-12.288 36.352-29.184 7.68-31.232 19.456-67.072 33.792-95.744v88.576l-31.232 312.32c-2.048 23.552 14.848 45.056 39.424 47.104h4.096c23.04 0 41.472-17.408 43.52-39.424l24.576-258.048 25.088 258.048c2.048 23.04 21.504 39.424 43.52 39.424h4.096c23.552-2.048 41.472-23.552 39.424-47.104l-30.208-314.368V417.792H354.304v219.648c0 14.848 12.288 28.16 28.16 28.16h175.104l-95.232 263.68c-5.632 14.336 2.048 30.208 17.408 35.84 3.584 1.536 6.656 2.048 9.216 2.048 12.288 0 23.04-7.68 25.6-18.432l101.376-282.624h138.752l101.376 281.088c5.632 14.336 21.504 21.504 35.84 17.408 14.336-5.632 21.504-21.504 17.408-35.84L814.08 665.088h175.104c14.848 0 28.16-12.8 28.16-28.16V134.656c-0.512-15.872-13.312-28.672-28.672-28.672z m-404.48 407.04c0 8.192-6.656 14.848-14.848 14.848h-71.68c-8.192 0-14.848-6.656-14.848-14.848v-71.68c0-8.192 6.656-14.848 14.848-14.848h71.68c8.192 0 14.848 6.656 14.848 14.848v71.68z m150.528 0c0 8.192-6.656 14.848-14.848 14.848h-71.68c-8.192 0-14.848-6.656-14.848-14.848V350.208c0-8.192 6.656-14.848 14.848-14.848h71.68c8.192 0 14.848 6.656 14.848 14.848v162.816z m151.552 0c0 8.192-6.656 14.848-14.848 14.848h-71.68c-8.192 0-14.848-6.656-14.848-14.848V258.048c0-8.192 6.656-14.848 14.848-14.848h71.68c8.192 0 14.848 6.656 14.848 14.848v254.976z" /></svg>