<?xml version="1.0" standalone="no"?><!DOCTYPE svg PUBLIC "-//W3C//DTD SVG 1.1//EN" "http://www.w3.org/Graphics/SVG/1.1/DTD/svg11.dtd"><svg class="icon" width="200px" height="200.00px" viewBox="0 0 1024 1024" version="1.1" xmlns="http://www.w3.org/2000/svg"><path d="M512 593.066667c-140.8 0-260.266667-115.2-260.266667-260.266667s115.2-256 260.266667-256 256 115.2 256 256-115.2 260.266667-256 260.266667z m0-460.8c-110.933333 0-200.533333 89.6-200.533333 200.533333s89.6 200.533333 200.533333 200.533333 200.533333-89.6 200.533333-200.533333-89.6-200.533333-200.533333-200.533333z" fill="#333333" /><path d="M866.133333 955.733333c-17.066667 0-29.866667-12.8-29.866666-29.866666 0-179.2-145.066667-328.533333-328.533334-328.533334-179.2 0-328.533333 145.066667-328.533333 328.533334 0 17.066667-12.8 29.866667-29.866667 29.866666-17.066667 0-29.866667-12.8-29.866666-29.866666 0-213.333333 174.933333-388.266667 388.266666-388.266667s388.266667 174.933333 388.266667 388.266667c0 17.066667-12.8 29.866667-29.866667 29.866666z" fill="#333333" /></svg>