<?xml version="1.0" standalone="no"?><!DOCTYPE svg PUBLIC "-//W3C//DTD SVG 1.1//EN" "http://www.w3.org/Graphics/SVG/1.1/DTD/svg11.dtd"><svg class="icon" width="200px" height="200.00px" viewBox="0 0 1024 1024" version="1.1" xmlns="http://www.w3.org/2000/svg"><path d="M942.588 144.505H826.271V79.05c0-34.556-28.012-62.568-62.568-62.568s-62.568 28.012-62.568 62.568v65.454H571.249V79.05c0-34.556-28.013-62.568-62.569-62.568s-62.568 28.012-62.568 62.568v65.454H316.226V79.05c0-34.556-28.012-62.568-62.568-62.568s-62.569 28.012-62.569 62.568v65.454H70.143c-35.504 0-64.388 25.256-64.388 56.3v762.857c0 31.044 28.884 56.3 64.388 56.3h872.445c35.504 0 64.388-25.256 64.388-56.3V200.805c0-31.044-28.885-56.3-64.388-56.3z m4.039 819.157c0 1.948-1.813 3.532-4.039 3.532H70.143c-2.228 0-4.039-1.584-4.039-3.532V200.805c0-1.948 1.811-3.532 4.039-3.532h120.946v9.225c0 34.556 28.013 62.568 62.569 62.568s62.568-28.012 62.568-62.568v-9.225h129.886v9.225c0 34.556 28.012 62.568 62.568 62.568s62.569-28.012 62.569-62.568v-9.225h129.886v9.225c0 34.556 28.012 62.568 62.568 62.568s62.568-28.012 62.568-62.568v-9.225h116.317c2.227 0 4.039 1.584 4.039 3.532v762.857zM500.723 628.423c82.926 0 150.403-66.465 150.398-148.193 0-81.723-67.472-148.193-150.398-148.193-82.925 0-150.397 66.493-150.397 148.193 0 81.705 67.472 148.193 150.397 148.193zM562.702 642.693h-112.69c-104.72 0-189.897 83.867-189.897 186.986v11.099c0 53.907 83.813 53.907 189.896 53.907h112.691c101.91 0 189.913 0 189.913-53.907v-11.1c0-103.095-85.19-186.985-189.913-186.985z" /></svg>