<?xml version="1.0" standalone="no"?><!DOCTYPE svg PUBLIC "-//W3C//DTD SVG 1.1//EN" "http://www.w3.org/Graphics/SVG/1.1/DTD/svg11.dtd"><svg class="icon" width="200px" height="200.00px" viewBox="0 0 1024 1024" version="1.1" xmlns="http://www.w3.org/2000/svg"><path d="M844.8 179.2H179.2c-12.8 0-25.6 6.4-25.6 25.6v480c0 12.8 6.4 25.6 25.6 25.6H358.4c-25.6 25.6-32 44.8-32 57.6 0 32 25.6 57.6 51.2 57.6h256c25.6 0 51.2-25.6 51.2-57.6 0-6.4 0-19.2-32-57.6H825.6c12.8 0 25.6-6.4 25.6-25.6l6.4-480c12.8-12.8 6.4-25.6-12.8-25.6z m-185.6 582.4c0 6.4-6.4 12.8-12.8 12.8H384c-6.4 0-12.8-6.4-12.8-12.8 6.4-12.8 32-38.4 51.2-57.6h185.6c38.4 38.4 51.2 57.6 51.2 57.6z m166.4-96H198.4v-448H832l-6.4 448z" fill="#4E8CEE" /><path d="M294.4 300.8c0 6.4 6.4 19.2 19.2 19.2s19.2-12.8 19.2-19.2c0-12.8-12.8-19.2-19.2-19.2-12.8-6.4-19.2 6.4-19.2 19.2zM294.4 492.8c0 6.4 6.4 19.2 19.2 19.2s19.2-12.8 19.2-19.2c0-12.8-12.8-19.2-19.2-19.2-12.8-6.4-19.2 6.4-19.2 19.2zM294.4 396.8c0 12.8 12.8 19.2 19.2 19.2s19.2-12.8 19.2-19.2c0-12.8-12.8-19.2-19.2-19.2-12.8-6.4-19.2 6.4-19.2 19.2zM294.4 582.4c0 12.8 12.8 19.2 19.2 19.2s19.2-12.8 19.2-19.2c0-12.8-12.8-19.2-19.2-19.2-12.8 0-19.2 12.8-19.2 19.2zM633.6 320H390.4c-12.8 0-25.6-12.8-25.6-19.2 0-12.8 6.4-19.2 19.2-19.2h243.2c12.8 0 19.2 6.4 19.2 19.2 6.4 6.4 0 19.2-12.8 19.2zM550.4 512H390.4c-12.8 0-25.6-12.8-25.6-19.2s6.4-19.2 19.2-19.2h166.4c12.8 0 19.2 6.4 19.2 19.2s-6.4 19.2-19.2 19.2zM710.4 416h-320c-12.8 0-19.2-6.4-19.2-19.2 0-12.8 6.4-19.2 19.2-19.2h326.4c12.8 0 19.2 6.4 19.2 19.2 0 6.4-12.8 19.2-25.6 19.2zM524.8 608H390.4c-12.8 0-19.2-6.4-19.2-19.2 0-12.8 6.4-19.2 19.2-19.2h134.4c12.8 0 19.2 6.4 19.2 19.2 0 6.4-6.4 19.2-19.2 19.2z" fill="#BAD4FF" /></svg>