<?xml version="1.0" standalone="no"?><!DOCTYPE svg PUBLIC "-//W3C//DTD SVG 1.1//EN" "http://www.w3.org/Graphics/SVG/1.1/DTD/svg11.dtd"><svg class="icon" width="200px" height="200.00px" viewBox="0 0 1024 1024" version="1.1" xmlns="http://www.w3.org/2000/svg"><path d="M857.817 636.057v197.4c0 35.523-28.444 64.32-63.533 64.32H264.843c-35.09 0-63.533-28.797-63.533-64.32V297.46h656.507V409.1c10.098-2.892 20.754-4.44 31.767-4.44s21.668 1.548 31.766 4.44V147.38c0-47.362-37.927-85.759-84.71-85.759H709.573v-21.44c0-11.842-9.481-21.44-21.178-21.44h-21.177c-11.696 0-21.178 9.598-21.177 21.44v21.44H413.085v-21.44c0-11.842-9.48-21.44-21.177-21.44H370.73c-11.697 0-21.178 9.598-21.178 21.44v21.44H222.487c-46.783 0-84.71 38.397-84.71 85.76v728.956c0 47.363 37.927 85.76 84.71 85.76H836.64c46.783 0 84.71-38.397 84.71-85.76v-240.28c-10.098 2.892-20.753 4.44-31.765 4.44s-21.669-1.548-31.767-4.44zM201.31 190.26c0-35.524 28.444-64.32 63.533-64.32h84.71v42.88c0 11.842 9.481 21.44 21.178 21.44h21.177c11.696 0 21.177-9.598 21.177-21.44v-42.88h232.956v42.88c0 11.842 9.48 21.44 21.177 21.44h21.177c11.697 0 21.178-9.598 21.178-21.44v-42.88h84.711c35.09 0 63.533 28.796 63.533 64.32v64.32H201.31v-64.32z"  /><path d="M762.518 640.498H317.787c-5.847 0-10.59 4.8-10.59 10.72v21.44c0 5.92 4.743 10.72 10.59 10.72h444.73c5.848 0 10.59-4.8 10.59-10.72v-21.44c0-5.92-4.742-10.72-10.59-10.72zM773.107 544.018c0-5.92-4.742-10.72-10.59-10.72h-444.73c-5.847 0-10.59 4.8-10.59 10.72v21.44c0 5.92 4.743 10.72 10.59 10.72h444.73c5.848 0 10.59-4.8 10.59-10.72v-21.44zM773.107 436.819c0-5.92-4.742-10.72-10.59-10.72h-444.73c-5.847 0-10.59 4.8-10.59 10.72v21.44c0 5.92 4.743 10.72 10.59 10.72h444.73c5.848 0 10.59-4.8 10.59-10.72v-21.44zM815.461 522.579a72.434 73.331 0 1 0 148.245 0 72.434 73.331 0 1 0-148.245 0z"  /></svg>